<svg width="139" height="29" viewBox="0 0 139 29" fill="none" xmlns="http://www.w3.org/2000/svg">
<path fill-rule="evenodd" clip-rule="evenodd" d="M6.4326 7.06283C6.43238 4.02127 3.96664 1.55566 0.92503 1.55566V7.06323H0.925293V11.1125L0.825155 21.1791C0.825155 22.5618 0.769196 23.4286 0.601318 24.2335H6.75684C6.58896 23.3667 6.533 22.6031 6.533 21.1791L6.43286 11.1125V7.06283H6.4326Z" fill="white"/>
<path fill-rule="evenodd" clip-rule="evenodd" d="M8.05298 24.0067H13.6193C13.4572 22.6827 13.4032 21.6289 13.4032 19.9265V14.4683C14.1598 12.6308 15.4027 11.577 16.8619 11.577C17.5104 11.577 18.0508 11.8202 18.348 12.2525C18.6993 12.7119 18.8074 13.2253 18.8074 14.3602V19.9265C18.8074 21.6559 18.7534 22.7908 18.5912 24.0067H24.2116C24.0495 22.7097 23.9955 21.5748 23.9955 19.9536V14.4412C24.671 12.6308 25.914 11.55 27.2921 11.55C28.8323 11.55 29.4267 12.3336 29.4267 14.3602V19.9265C29.4267 21.764 29.3727 22.7367 29.2106 24.0067H34.831C34.6688 22.7367 34.6148 21.6289 34.6148 19.9536V13.2523C34.6148 9.1721 32.6423 7.06445 28.7782 7.06445C26.4274 7.06445 24.7791 7.767 23.1038 9.4153C22.7525 8.73976 22.4823 8.41551 21.9959 8.06424C21.1042 7.41573 19.9423 7.09147 18.5372 7.09147C16.4025 7.09147 14.7542 7.79402 13.3762 9.30721C13.3316 9.34349 13.3045 9.36558 13.2782 9.38872C13.2374 9.42475 13.1989 9.46333 13.1002 9.56197L12.9382 9.72396L12.8604 9.8018C11.8781 8.29214 10.1759 7.29391 8.2406 7.29391L8.26915 10.8312V11.604V19.9265C8.26915 21.6289 8.21511 22.7638 8.05298 24.0067Z" fill="white"/>
<path fill-rule="evenodd" clip-rule="evenodd" d="M36.1265 28.9246H41.6658C41.5037 27.7627 41.4496 26.5197 41.4496 25.0065V23.1421C41.4226 22.7638 41.4226 22.4125 41.4226 22.1693C42.1792 22.8178 42.5845 23.115 43.2871 23.4123C44.2869 23.8446 45.6649 24.1148 46.9349 24.1148C49.1507 24.1148 51.1232 23.3582 52.5013 21.9801C54.0415 20.4399 54.8521 18.1972 54.8521 15.441C54.8521 12.7119 54.1226 10.5772 52.6905 9.14508C51.2853 7.767 49.3398 7.06445 46.962 7.06445C44.7192 7.06445 43.0439 7.6319 41.4226 8.98296C41.4226 8.98296 41.0314 9.27635 40.8497 9.42719C40.7566 9.50448 40.6637 9.59364 40.5845 9.67433C39.5746 8.43596 38.0367 7.64516 36.3141 7.64516V13.1527H36.3426V24.9795C36.3426 26.4116 36.2616 27.7627 36.1265 28.9246ZM48.3941 19.0078C47.6915 19.6833 46.7728 20.0346 45.746 20.0346C43.3141 20.0346 41.5037 18.1161 41.5037 15.5761C41.5037 13.1172 43.3411 11.1447 45.5839 11.1447C48.1239 11.1447 49.583 12.7389 49.583 15.4951C49.583 17.0353 49.1507 18.2782 48.3941 19.0078Z" fill="white"/>
<path fill-rule="evenodd" clip-rule="evenodd" d="M68.308 12.5758L69.605 7.71195C68.335 7.44174 67.7946 7.3877 66.9299 7.3877C64.471 7.3877 62.8497 8.11727 61.5257 9.84662L61.1763 10.3603C60.2429 8.64603 58.4253 7.48263 56.3359 7.48263V12.9902H56.3646V20.1147C56.3646 21.871 56.3106 22.8438 56.1484 24.1949H61.7418C61.5797 22.8979 61.5257 21.871 61.5257 20.1417V15.9264C61.6337 14.7375 61.8229 14.17 62.3363 13.5215C63.1199 12.5487 64.1737 12.0624 65.5518 12.0624C66.3895 12.0624 67.065 12.1975 68.308 12.5758Z" fill="white"/>
<path fill-rule="evenodd" clip-rule="evenodd" d="M76.7324 12.8949C76.7322 9.8533 74.2664 7.3877 71.2248 7.3877V12.8953H71.2251V16.9445L71.125 20.9942C71.125 22.377 71.069 23.2437 70.9011 24.0486H77.0566C76.8888 23.1818 76.8328 22.4182 76.8328 20.9942L76.7327 16.9445V12.8949H76.7324Z" fill="white"/>
<rect x="70.9041" y="0.260742" width="5.50757" height="5.50757" rx="2.75379" fill="white"/>
<path fill-rule="evenodd" clip-rule="evenodd" d="M78.3523 23.9527H83.9457C83.7836 22.5476 83.7295 21.4127 83.7295 19.8725V14.4142C84.8914 12.5227 86.2425 11.577 87.7557 11.577C88.5663 11.577 89.1878 11.8472 89.5391 12.3336C89.8633 12.7929 89.9714 13.2523 89.9714 14.3332V19.8725C89.9714 21.5208 89.9174 22.6557 89.7552 23.9527H95.3756C95.2405 22.8178 95.1595 21.4667 95.1595 19.8995V13.1172C95.1595 10.9825 94.7001 9.65849 93.6193 8.57764C92.6195 7.57786 91.1333 7.06445 89.2689 7.06445C87.0531 7.06445 85.4048 7.73998 83.7025 9.36125C83.5659 9.49133 83.4332 9.65283 83.3253 9.78412C83.236 9.89272 83.1638 9.98064 83.1204 10.013C82.1324 8.53677 80.4497 7.5648 78.54 7.5648V13.0724H78.5685V19.8725C78.5685 21.5478 78.5144 22.6827 78.3523 23.9527Z" fill="white"/>
<path fill-rule="evenodd" clip-rule="evenodd" d="M106.102 7.61642H105.45C104.954 5.0848 102.723 3.1748 100.046 3.1748V7.61642H99.0763C98.1305 7.61642 97.455 7.56238 96.6714 7.45429V11.9668C97.455 11.8587 98.1576 11.8047 99.0222 11.8047H100.049V20.0732C100.049 21.9106 100.427 22.8293 101.454 23.613C102.293 24.242 102.871 24.5395 104.582 24.5568V24.5569C104.586 24.5569 104.591 24.5569 104.595 24.5569C104.644 24.5574 104.693 24.5576 104.744 24.5576C104.744 24.5576 104.745 24.5563 104.747 24.5537C106.997 24.4667 108.793 22.6158 108.793 20.3453H106.274C106.015 20.2957 105.791 20.2122 105.615 20.1002C105.264 19.857 105.129 19.4787 105.129 18.7221V11.8047H106.264C107.237 11.8047 107.939 11.8587 108.75 11.9668V7.48131C107.912 7.5894 107.291 7.61642 106.102 7.61642ZM100.046 7.70055V7.65862L100.046 7.70055L100.046 7.70055Z" fill="white"/>
<path fill-rule="evenodd" clip-rule="evenodd" d="M125.567 17.3905L114.341 27.0652V2.11914L125.567 11.7995V17.3905ZM121.825 14.4695L114.341 20.5795V8.35589L121.825 14.4695Z" fill="url(#paint0_linear_2904_6056)"/>
<path fill-rule="evenodd" clip-rule="evenodd" d="M127.338 17.3907L138.564 27.0652V2.11914L127.338 11.7993V17.3907ZM131.08 14.4695L138.564 20.5795V8.35589L131.08 14.4695Z" fill="url(#paint1_linear_2904_6056)"/>
<defs>
<linearGradient id="paint0_linear_2904_6056" x1="115.074" y1="3.901" x2="133.919" y2="14.2397" gradientUnits="userSpaceOnUse">
<stop stop-color="#EEACFF"/>
<stop offset="1" stop-color="#88FFEA"/>
</linearGradient>
<linearGradient id="paint1_linear_2904_6056" x1="137.831" y1="3.901" x2="118.985" y2="14.2398" gradientUnits="userSpaceOnUse">
<stop stop-color="#EEACFF"/>
<stop offset="1" stop-color="#88FFEA"/>
</linearGradient>
</defs>
</svg>
